<svg width="24" height="24" viewBox="0 0 24 24" fill="none" xmlns="http://www.w3.org/2000/svg">
<g clip-path="url(#clip0_1_32)">
<path d="M23.3841 10.6487L20.1846 7.44919C19.4436 6.70838 18.2426 6.70838 17.5018 7.44919L14.3023 10.6487C13.5614 11.3897 13.5614 12.5905 14.3023 13.3316L17.5018 16.5311C18.2426 17.2719 19.4436 17.2719 20.1846 16.5311L23.3841 13.3316C24.1249 12.5905 24.1249 11.3897 23.3841 10.6487Z" fill="#180E19"/>
<path d="M16.5312 17.5016L14.9748 15.9454L10.9791 11.9495L13.2909 9.63761L16.4907 6.43786C17.2315 5.69706 17.2315 4.4958 16.4907 3.75524L13.2909 0.555491C12.5501 -0.185316 11.3491 -0.185316 10.6083 0.555491L8.42718 2.73635L7.40854 3.75524L3.75514 7.40839L3.24909 7.91444L0.555641 10.6079C-0.185165 11.3487 -0.185165 12.55 0.555641 13.2908L3.75514 16.4905H3.75539L7.44935 20.1845L7.90905 20.6442L8.9491 21.6842L10.6488 23.384C11.3897 24.1248 12.5909 24.1248 13.3315 23.384L16.5312 20.1845C17.272 19.4434 17.272 18.2424 16.5312 17.5016Z" fill="#180E19"/>
</g>
<defs>
<clipPath id="clip0_1_32">
<rect width="24" height="24" fill="white"/>
</clipPath>
</defs>
</svg>
